<svg xmlns="http://www.w3.org/2000/svg" viewBox="0 0 512 512">
  <defs>
    <linearGradient id="grad1" x1="0%" y1="0%" x2="100%" y2="100%">
      <stop offset="0%" style="stop-color:#FF6B6B;stop-opacity:1" />
      <stop offset="100%" style="stop-color:#EE5253;stop-opacity:1" />
    </linearGradient>
  </defs>
  <!-- Background Circle -->
  <circle cx="256" cy="256" r="240" fill="url(#grad1)" />
  <!-- Gift Box Body -->
  <rect x="156" y="220" width="200" height="150" rx="10" fill="#FFFFFF" />
  <!-- Gift Box Lid -->
  <rect x="146" y="190" width="220" height="40" rx="5" fill="#FFFFFF" />
  <!-- Vertical Ribbon -->
  <rect x="241" y="190" width="30" height="180" fill="#FF9F43" />
  <!-- Heart Icon on Box -->
  <path d="M256 310c-20-20-50-10-50 15 0 20 50 45 50 45s50-25 50-45c0-25-30-35-50-15z" fill="#FF6B6B" />
  <!-- Bow -->
  <path d="M256 190c-30-40-70-20-40 0h40zm0 0c30-40 70-20 40 0h-40z" fill="#FF9F43" stroke="#FFFFFF" stroke-width="5" />
</svg>
